<?xml version="1.0" encoding="utf-8"?>
<!-- Generator: Adobe Illustrator 17.1.0, SVG Export Plug-In . SVG Version: 6.00 Build 0)  -->
<!DOCTYPE svg PUBLIC "-//W3C//DTD SVG 1.1//EN" "http://www.w3.org/Graphics/SVG/1.1/DTD/svg11.dtd">
<svg version="1.1" id="Layer_1" xmlns="http://www.w3.org/2000/svg" xmlns:xlink="http://www.w3.org/1999/xlink" x="0px" y="0px"
	 viewBox="48.6 48.5 415 415" enable-background="new 48.6 48.5 415 415" xml:space="preserve">
<path id="link-icon" d="M156.2,199.7c7.5-7.5,15.9-13.8,24.8-18.7c49.6-27.3,113.1-12.8,145,35.5l-38.5,38.5
	c-11.1-25.2-38.5-39.6-65.8-33.5c-10.3,2.3-20.1,7.4-28,15.4l-73.9,73.9c-22.4,22.4-22.4,58.9,0,81.4c22.4,22.4,58.9,22.4,81.4,0
	l22.8-22.8c20.7,8.2,42.9,11.5,64.9,9.9l-50.3,50.3c-43.1,43.1-113,43.1-156.1,0c-43.1-43.1-43.1-113,0-156.1L156.2,199.7z
	 M273.6,82.3l-50.3,50.3c21.9-1.6,44.2,1.6,64.9,9.9l22.8-22.8c22.4-22.4,58.9-22.4,81.4,0c22.4,22.4,22.4,58.9,0,81.4L318.5,275
	c-22.5,22.5-59.1,22.3-81.4,0c-5.2-5.2-9.7-11.7-12.5-18l-38.5,38.5c4,6.1,8.3,11.5,13.7,16.9c13.9,13.9,31.7,24.3,52.1,29.3
	c26.5,6.4,54.8,2.8,79.2-10.6c8.9-4.9,17.3-11.1,24.8-18.7l73.9-73.9c43.1-43.1,43.1-113,0-156.1C386.6,39.2,316.7,39.2,273.6,82.3
	L273.6,82.3z"/>
</svg>
