<?xml version="1.0" encoding="utf-8"?>
<!-- Generator: Adobe Illustrator 17.1.0, SVG Export Plug-In . SVG Version: 6.00 Build 0)  -->
<!DOCTYPE svg PUBLIC "-//W3C//DTD SVG 1.1//EN" "http://www.w3.org/Graphics/SVG/1.1/DTD/svg11.dtd">
<svg version="1.1" id="Layer_5" xmlns="http://www.w3.org/2000/svg" xmlns:xlink="http://www.w3.org/1999/xlink" x="0px" y="0px"
	 viewBox="0 0 125 75" enable-background="new 0 0 125 75" xml:space="preserve">
<g>
	<g>
		<path fill="#6E5A2A" d="M3,64.5h1.9v-8.1H4.7c-0.9,0-1.4,0.1-2,0.5c-0.9,0.5-1.2,1.3-1.2,2.7c0,0.1,0,0.2,0,0.3v0.1H1v-4h10.7v4
			h-0.5v-0.1c0-0.1,0-0.2,0-0.3c0-2.2-1-3.2-3.3-3.2H7.8v8.1h1.7V65H3V64.5z"/>
		<path fill="#6E5A2A" d="M17.1,64.5h1.7v-8.1h-1.7v-0.3h11.2v3.5h-0.5c0-2-1.5-3.2-3.9-3.2h-0.2h-1.9v3.8h0.9
			c0.7,0,1.1-0.1,1.5-0.4c0.4-0.3,0.5-0.7,0.5-1.5l0-0.2h0.5v4.7h-0.5c0-1.3-0.8-2.1-2-2.1h-0.9v3.9h2.4c1.4,0,2.4-0.5,3.1-1.5
			c0.3-0.5,0.5-1,0.5-1.6c0-0.1,0-0.1,0-0.2h0.5V65H17.1V64.5z"/>
		<path fill="#6E5A2A" d="M34,64.5h1.5v-8H34v-0.4h7.9h0.2c1.6,0,2.3,0.2,2.9,0.8c0.3,0.3,0.5,0.8,0.5,1.3c0,1-0.6,1.7-1.7,2
			c-0.4,0.1-0.9,0.2-1.4,0.3c-0.1,0-0.3,0-0.5,0.1l0.5,0c1.9,0.1,2.6,0.7,2.6,2.3c0,1.2,0.2,1.6,0.7,1.6c0.4,0,0.5-0.2,0.5-1.4v-0.2
			h0.5v0.1c0,1.7-0.5,2.3-2,2.3c-1.1,0-1.6-0.1-2-0.4c-0.4-0.4-0.6-0.9-0.6-1.9c-0.1-1.1-0.3-1.6-0.7-1.9c-0.3-0.2-0.6-0.2-1.1-0.2
			h-1.8v3.8h1.8V65H34V64.5z M40.2,60.3c1.6,0,2.4-0.6,2.4-1.9c0-1-0.6-1.8-1.5-1.9c-0.4-0.1-1.1-0.1-2.1-0.1c-0.1,0-0.3,0-0.4,0
			h-0.3v3.9H40.2z"/>
		<path fill="#6E5A2A" d="M51.8,64.5h1.5v-8h-1.5v-0.4h7.9H60c1.6,0,2.3,0.2,2.9,0.8c0.3,0.3,0.5,0.8,0.5,1.3c0,1-0.6,1.7-1.7,2
			c-0.4,0.1-0.9,0.2-1.4,0.3c-0.1,0-0.3,0-0.5,0.1l0.5,0c1.9,0.1,2.6,0.7,2.6,2.3c0,1.2,0.2,1.6,0.7,1.6c0.4,0,0.5-0.2,0.5-1.4v-0.2
			h0.5v0.1c0,1.7-0.5,2.3-2,2.3c-1.1,0-1.6-0.1-2-0.4c-0.4-0.4-0.6-0.9-0.6-1.9c-0.1-1.1-0.3-1.6-0.7-1.9c-0.3-0.2-0.6-0.2-1.1-0.2
			h-1.8v3.8H58V65h-6.2V64.5z M58,60.3c1.6,0,2.4-0.6,2.4-1.9c0-1-0.6-1.8-1.5-1.9c-0.4-0.1-1.1-0.1-2.1-0.1c-0.1,0-0.3,0-0.4,0
			h-0.3v3.9H58z"/>
		<path fill="#6E5A2A" d="M67.4,64.5c0.7-0.1,1-0.3,1.6-1.2l4.5-7.5h0.2l5,8.7h1.1V65h-5.8l0-0.4h1.5L74,62.2h-3.9
			c-0.5,0.6-0.7,1.1-0.7,1.4c0,0.6,0.5,0.9,1.6,0.9V65h-3.7V64.5z M73.8,61.8l-1.6-3l-1.6,3H73.8z"/>
		<path fill="#6E5A2A" d="M82.6,64.5h1.7v-8h-1.7v-0.4h7.7h0.2c2.1,0,2.8,0.2,3.4,1.1c0.3,0.4,0.5,0.9,0.5,1.4
			c0,1.7-1.3,2.5-4.1,2.5h-3.1v3.5h2.2V65h-6.8V64.5z M88.8,60.7l0.3,0c1.4,0,2.2-0.8,2.2-2.1c0-0.8-0.4-1.6-1-1.9
			c-0.3-0.1-0.8-0.2-1.3-0.2h-0.2h-1.6v4.2H88.8z"/>
		<path fill="#6E5A2A" d="M99.7,64.6h1.6v-8.1h-1.6v-0.4h6v0.4h-1.6l0,8.1h1.6V65h-6V64.6z"/>
		<path fill="#6E5A2A" d="M111.3,64.5c0.1,0,0.1,0,0.2,0c1.2-0.1,1.5-0.6,1.5-1.9V57l-0.7-0.5h-1v-0.4h4.9l6,5v-3
			c0-1.3-0.3-1.6-1.6-1.6h-0.2h-0.2l0-0.4h3.6v0.4h-0.1h-0.1c-0.9,0-1.1,0.3-1.2,1.4v0.2v7h-0.4l-8.7-7.7v5.2c0,1.1,0.2,1.5,0.8,1.7
			c0.3,0.1,0.6,0.2,1,0.2c0,0,0.1,0,0.2,0V65h-4.1V64.5z"/>
	</g>
	<g>
		<g>
			<path fill="#6E5A2A" d="M49.9,21.6l-1.2,0.7v1.6l1.4,0.8l1.4-0.8v-1.6l-1.4-0.8L49.9,21.6z M50.1,22.5c0.2,0.1,0.4,0.2,0.6,0.3
				c0,0.2,0,0.4,0,0.7c-0.2,0.1-0.4,0.2-0.6,0.3c-0.2-0.1-0.4-0.2-0.6-0.3c0-0.2,0-0.4,0-0.7C49.8,22.7,50,22.6,50.1,22.5z"/>
		</g>
		<g>
			<path fill="#6E5A2A" d="M49.9,19.3l-3.2,1.9v3.9l3.4,2l3.4-2v-3.9l-3.4-2L49.9,19.3z M50.1,20.1c0.3,0.2,2.3,1.3,2.6,1.5
				c0,0.4,0,2.7,0,3c-0.3,0.2-2.3,1.3-2.6,1.5c-0.3-0.2-2.3-1.3-2.6-1.5c0-0.4,0-2.7,0-3C47.8,21.4,49.8,20.3,50.1,20.1z"/>
		</g>
		<g>
			<path fill="#6E5A2A" d="M49.9,16.9l-5.3,3v6.3l5.5,3.2l5.5-3.2V20l-5.5-3.2L49.9,16.9z M50.1,17.7c0.4,0.2,4.3,2.5,4.7,2.7
				c0,0.4,0,5,0,5.4c-0.4,0.2-4.3,2.5-4.7,2.7c-0.4-0.2-4.3-2.5-4.7-2.7c0-0.4,0-5,0-5.4C45.8,20.2,49.8,17.9,50.1,17.7z"/>
		</g>
		<g>
			<path fill="#6E5A2A" d="M49.9,14.5l-7.3,4.2v8.7l7.5,4.4l7.5-4.4l0-8.7l-7.5-4.3L49.9,14.5z M50.1,15.3c0.4,0.2,6.4,3.7,6.7,3.9
				c0,0.4,0,7.4,0,7.8c-0.4,0.2-6.4,3.7-6.7,3.9c-0.4-0.2-6.4-3.7-6.7-3.9c0-0.4,0-7.3,0-7.8C43.8,19,49.8,15.6,50.1,15.3z"/>
		</g>
		<g>
			<path fill="#6E5A2A" d="M49.9,12.2l-9.4,5.4v11.1l9.6,5.5l9.6-5.5V17.6l-9.6-5.5L49.9,12.2z M50.1,13c0.4,0.2,8.4,4.9,8.8,5.1
				c0,0.4,0,9.7,0,10.1c-0.4,0.2-8.4,4.9-8.8,5.1c-0.4-0.2-8.4-4.9-8.8-5.1c0-0.4,0-9.7,0-10.1C41.7,17.8,49.8,13.2,50.1,13z"/>
		</g>
	</g>
	<g>
		<g>
			<path fill="#AEA400" d="M68.3,16.7l-1.2,0.7V19l1.4,0.8l1.4-0.8v-1.6l-1.4-0.8L68.3,16.7z M68.5,17.5c0.2,0.1,0.4,0.2,0.6,0.3
				c0,0.2,0,0.4,0,0.7c-0.2,0.1-0.4,0.2-0.6,0.3c-0.2-0.1-0.4-0.2-0.6-0.3c0-0.2,0-0.4,0-0.7C68.1,17.7,68.3,17.6,68.5,17.5z"/>
		</g>
		<g>
			<path fill="#AEA400" d="M68.3,14.3l-3.2,1.9v3.9l3.4,2l3.4-2v-3.9l-3.4-2L68.3,14.3z M68.5,15.1c0.3,0.2,2.3,1.3,2.6,1.5
				c0,0.4,0,2.7,0,3c-0.3,0.2-2.3,1.3-2.6,1.5c-0.3-0.2-2.3-1.3-2.6-1.5c0-0.4,0-2.7,0-3C66.2,16.5,68.2,15.3,68.5,15.1z"/>
		</g>
		<g>
			<path fill="#AEA400" d="M68.3,12L63,15v6.3l5.5,3.2l5.5-3.2V15l-5.5-3.2L68.3,12z M68.5,12.8c0.4,0.2,4.3,2.5,4.7,2.7
				c0,0.4,0,5,0,5.4c-0.4,0.2-4.3,2.5-4.7,2.7c-0.4-0.2-4.3-2.5-4.7-2.7c0-0.4,0-5,0-5.4C64.2,15.3,68.1,13,68.5,12.8z"/>
		</g>
		<g>
			<path fill="#AEA400" d="M68.3,9.6L61,13.8v8.7l7.5,4.3l7.5-4.3v-8.7l-7.5-4.3L68.3,9.6z M68.5,10.4c0.4,0.2,6.4,3.7,6.7,3.9
				c0,0.4,0,7.3,0,7.8c-0.4,0.2-6.4,3.7-6.7,3.9c-0.4-0.2-6.4-3.7-6.7-3.9c0-0.4,0-7.3,0-7.8C62.1,14.1,68.1,10.6,68.5,10.4z"/>
		</g>
		<g>
			<path fill="#AEA400" d="M68.3,7.2l-9.4,5.4v11.1l9.6,5.5l9.6-5.5V12.6l-9.6-5.5L68.3,7.2z M68.5,8c0.4,0.2,8.4,4.9,8.8,5.1
				c0,0.4,0,9.7,0,10.1c-0.4,0.2-8.4,4.9-8.8,5.1c-0.4-0.2-8.4-4.9-8.8-5.1c0-0.4,0-9.7,0-10.1C60.1,12.9,68.1,8.2,68.5,8z"/>
		</g>
		<g>
			<path fill="#AEA400" d="M68.3,4.9l-11.4,6.6v13.4l11.6,6.7l11.6-6.7V11.5L68.5,4.7L68.3,4.9z M68.5,5.7c0.4,0.2,10.5,6,10.8,6.3
				c0,0.4,0,12.1,0,12.5c-0.4,0.2-10.5,6-10.8,6.3c-0.4-0.2-10.5-6-10.8-6.3c0-0.4,0-12.1,0-12.5C58,11.7,68.1,5.9,68.5,5.7z"/>
		</g>
		<g>
			<path fill="#AEA400" d="M68.3,2.5l-13.5,7.8v15.8L68.5,34l13.7-7.9V10.3L68.5,2.4L68.3,2.5z M68.5,3.3c0.4,0.2,12.5,7.2,12.9,7.4
				c0,0.4,0,14.4,0,14.9c-0.4,0.2-12.5,7.2-12.9,7.4c-0.4-0.2-12.5-7.2-12.9-7.4c0-0.4,0-14.4,0-14.9C56,10.5,68.1,3.5,68.5,3.3z"/>
		</g>
		<g>
			<path fill="#AEA400" d="M68.3,0.1l-15.5,9v18.2l15.7,9.1l15.7-9.1V9.1L68.5,0L68.3,0.1z M68.5,0.9C68.9,1.1,83,9.3,83.4,9.6
				c0,0.4,0,16.8,0,17.2C83,27,68.9,35.2,68.5,35.4c-0.4-0.2-14.6-8.4-14.9-8.6c0-0.4,0-16.8,0-17.2C53.9,9.3,68.1,1.1,68.5,0.9z"/>
		</g>
	</g>
	<g>
		<g>
			<path fill="#6EB1E5" d="M63.4,35.1l-1.2,0.7v1.6l1.4,0.8l1.4-0.8v-1.6L63.6,35L63.4,35.1z M63.6,35.9c0.2,0.1,0.4,0.2,0.6,0.3
				c0,0.2,0,0.4,0,0.7c-0.2,0.1-0.4,0.2-0.6,0.3c-0.2-0.1-0.4-0.2-0.6-0.3c0-0.2,0-0.4,0-0.7C63.2,36.1,63.4,36,63.6,35.9z"/>
		</g>
		<g>
			<g>
				<path fill="#6EB1E5" d="M63.4,32.7l-3.2,1.9v4l3.4,2l3.4-2v-4l-3.4-2L63.4,32.7z M63.6,33.5c0.3,0.2,2.3,1.3,2.6,1.5
					c0,0.4,0,2.7,0,3c-0.3,0.2-2.3,1.3-2.6,1.5c-0.3-0.2-2.3-1.3-2.6-1.5c0-0.4,0-2.7,0-3C61.3,34.8,63.3,33.7,63.6,33.5z"/>
			</g>
			<g>
				<path fill="#6EB1E5" d="M63.4,30.3l-5.3,3v6.3l5.5,3.2l5.5-3.2v-6.3l-5.5-3.2L63.4,30.3z M63.6,31.1c0.4,0.2,4.3,2.5,4.7,2.7
					c0,0.4,0,5,0,5.4c-0.4,0.2-4.3,2.5-4.7,2.7c-0.4-0.2-4.3-2.5-4.7-2.7c0-0.4,0-5,0-5.4C59.3,33.6,63.3,31.4,63.6,31.1z"/>
			</g>
			<g>
				<path fill="#6EB1E5" d="M63.4,28l-7.3,4.2v8.7l7.5,4.4l7.5-4.4v-8.7l-7.5-4.4L63.4,28z M63.6,28.8c0.4,0.2,6.4,3.7,6.7,3.9
					c0,0.4,0,7.3,0,7.8c-0.4,0.2-6.4,3.7-6.7,3.9c-0.4-0.2-6.4-3.7-6.7-3.9c0-0.4,0-7.3,0-7.8C57.2,32.5,63.2,29,63.6,28.8z"/>
			</g>
			<g>
				<path fill="#6EB1E5" d="M63.4,25.6L54,31v11.1l9.6,5.5l9.6-5.5V31l-9.6-5.5L63.4,25.6z M63.6,26.4c0.4,0.2,8.4,4.9,8.8,5.1
					c0,0.4,0,9.7,0,10.1c-0.4,0.2-8.4,4.9-8.8,5.1c-0.4-0.2-8.4-4.9-8.8-5.1c0-0.4,0-9.7,0-10.1C55.2,31.3,63.2,26.6,63.6,26.4z"/>
			</g>
			<g>
				<path fill="#6EB1E5" d="M63.4,23.2L52,29.8v13.4L63.6,50l11.6-6.7V29.8l-11.6-6.7L63.4,23.2z M63.6,24c0.4,0.2,10.5,6,10.8,6.3
					c0,0.4,0,12.1,0,12.5c-0.4,0.2-10.5,6-10.8,6.3c-0.4-0.2-10.5-6-10.8-6.3c0-0.4,0-12.1,0-12.5C53.1,30.1,63.2,24.3,63.6,24z"/>
			</g>
		</g>
	</g>
	<g>
		<path fill="#6E5A2A" d="M35.5,74.9h-1.5V71h1.6c0.7,0,1.1,0.4,1.1,1c0,0.4-0.2,0.6-0.5,0.8c0.3,0.1,0.7,0.4,0.7,0.9
			C36.8,74.5,36.3,74.9,35.5,74.9z M35.5,71.6h-1v1h1c0.4,0,0.5-0.2,0.5-0.5C36.1,71.8,35.9,71.6,35.5,71.6z M35.5,73.1h-1.1v1.3h1
			c0.5,0,0.7-0.3,0.7-0.6C36.2,73.4,36,73.1,35.5,73.1z"/>
		<path fill="#6E5A2A" d="M41.5,73.3l0.8,1.6h-0.7l-0.8-1.5h-0.9v1.5h-0.6V71h1.7c0.7,0,1.3,0.4,1.3,1.2
			C42.3,72.8,42,73.2,41.5,73.3z M41.1,71.6h-1.1v1.3h1.1c0.4,0,0.7-0.2,0.7-0.6C41.7,71.8,41.5,71.6,41.1,71.6z"/>
		<path fill="#6E5A2A" d="M44.9,74.9V71h0.6v3.9H44.9z"/>
		<path fill="#6E5A2A" d="M49.7,75c-1,0-1.6-0.8-1.6-2c0-1.2,0.6-2,1.6-2c0.6,0,1.1,0.3,1.3,0.7L50.5,72c-0.2-0.3-0.4-0.5-0.8-0.5
			c-0.7,0-1.1,0.6-1.1,1.4c0,0.9,0.4,1.4,1.1,1.4c0.6,0,0.9-0.4,0.9-0.9v0h-0.6V73h1.2v0.5C51.1,74.4,50.5,75,49.7,75z"/>
		<path fill="#6E5A2A" d="M56,74.9v-1.7h-1.8v1.7h-0.6V71h0.6v1.6H56V71h0.6v3.9H56z"/>
		<path fill="#6E5A2A" d="M60.8,71.6v3.3h-0.6v-3.3H59V71h2.9v0.6H60.8z"/>
		<path fill="#6E5A2A" d="M68.2,75c-1,0-1.6-0.8-1.6-2c0-1.2,0.6-2,1.6-2c0.6,0,1.1,0.3,1.3,0.7L69,72c-0.2-0.3-0.4-0.5-0.8-0.5
			c-0.7,0-1.1,0.6-1.1,1.4c0,0.9,0.4,1.4,1.1,1.4c0.6,0,0.9-0.4,0.9-0.9v0h-0.6V73h1.2v0.5C69.7,74.4,69.1,75,68.2,75z"/>
		<path fill="#6E5A2A" d="M74.3,73.3l0.8,1.6h-0.7l-0.8-1.5h-0.9v1.5h-0.6V71h1.7c0.7,0,1.3,0.4,1.3,1.2
			C75.2,72.8,74.8,73.2,74.3,73.3z M73.9,71.6h-1.1v1.3h1.1c0.4,0,0.7-0.2,0.7-0.6C74.6,71.8,74.3,71.6,73.9,71.6z"/>
		<path fill="#6E5A2A" d="M77.7,74.9V71h2.5v0.6h-1.9v1h1.1v0.6h-1.1v1.2h2v0.6H77.7z"/>
		<path fill="#6E5A2A" d="M82.8,74.9V71h2.5v0.6h-1.9v1h1.1v0.6h-1.1v1.2h2v0.6H82.8z"/>
		<path fill="#6E5A2A" d="M90.3,74.9l-1.6-2.4c-0.1-0.1-0.2-0.4-0.3-0.5c0,0.1,0,0.7,0,0.9v2h-0.6V71h0.6l1.5,2.4
			c0.1,0.2,0.3,0.4,0.3,0.6c0-0.1,0-0.7,0-0.9v-2h0.6v3.9H90.3z"/>
	</g>
</g>
</svg>
