<?xml version="1.0" encoding="utf-8"?>
<!-- Generator: Adobe Illustrator 17.1.0, SVG Export Plug-In . SVG Version: 6.00 Build 0)  -->
<!DOCTYPE svg PUBLIC "-//W3C//DTD SVG 1.1//EN" "http://www.w3.org/Graphics/SVG/1.1/DTD/svg11.dtd">
<svg version="1.1" id="Layer_1" xmlns="http://www.w3.org/2000/svg" xmlns:xlink="http://www.w3.org/1999/xlink" x="0px" y="0px"
	 viewBox="0 0 167.833 100" enable-background="new 0 0 167.833 100" xml:space="preserve">
<path fill="#FFFFFF" d="M92.766,25.127c-0.248,0.138-0.511,0.285-0.76,0.424c-0.249-0.139-0.512-0.286-0.761-0.424v-0.85
	c0.249-0.139,0.512-0.286,0.761-0.426c0.249,0.14,0.512,0.287,0.76,0.426V25.127z M92.005,22.659l-0.269,0.15l-1.563,0.873v2.041
	l1.831,1.02l1.831-1.02v-2.041L92.005,22.659z"/>
<path fill="#FFFFFF" d="M95.516,26.66c-0.433,0.241-3.076,1.716-3.509,1.957c-0.434-0.242-3.076-1.717-3.507-1.957v-3.914
	c0.431-0.242,3.073-1.716,3.507-1.957c0.433,0.242,3.076,1.716,3.509,1.957V26.66z M91.74,19.746l-4.31,2.405v5.104l4.578,2.556
	l4.578-2.556v-5.104l-4.578-2.555L91.74,19.746z"/>
<path fill="#FFFFFF" d="M98.266,28.195c-0.474,0.263-5.783,3.227-6.255,3.492c-0.475-0.264-5.784-3.228-6.257-3.492v-6.977
	c0.472-0.263,5.782-3.226,6.257-3.492c0.472,0.265,5.782,3.228,6.255,3.492V28.195z M99.336,20.622l-7.325-4.088l-0.269,0.149
	l-7.058,3.939v8.167l7.326,4.089l7.325-4.089V20.622z"/>
<path fill="#FFFFFF" d="M85.447,31.084c-1.183-0.66-2.281-1.27-2.436-1.356v-10.04c0.49-0.274,8.511-4.75,9.001-5.024
	c0.491,0.274,8.512,4.75,9.002,5.024v10.04c-0.49,0.273-8.511,4.75-9.002,5.025c-0.33-0.184-4.072-2.274-6.633-3.703v1.193
	l6.633,3.702l10.073-5.621V19.093l-10.073-5.621l-0.267,0.15l-9.803,5.471v11.231l3.553,1.985"/>
<path fill="#FFFFFF" d="M77.522,16.631c0.505-0.283,13.988-7.808,14.494-8.091c0.508,0.283,13.991,7.808,14.496,8.091v16.164
	c-0.505,0.283-13.988,7.808-14.496,8.092c-0.239-0.133-3.354-1.872-6.545-3.655v1.193l6.545,3.655l15.566-8.689V16.035L92.016,7.348
	l-0.267,0.149l-15.297,8.539v5.891l1.071,0.608V16.631z"/>
<path fill="#FFFFFF" d="M74.777,15.102c0.51-0.284,16.73-9.338,17.241-9.624c0.51,0.286,16.733,9.34,17.241,9.624v19.227
	c-0.508,0.285-16.731,9.34-17.241,9.626c-0.213-0.119-6.55-3.657-6.55-3.657l0.001,1.193l6.549,3.657l18.312-10.224V14.506
	L92.019,4.285l-0.267,0.15L73.708,14.506v5.863l1.07,0.608V15.102z"/>
<path fill="#FFFFFF" d="M92.021,1.223l-0.268,0.149l-20.79,11.606v5.834l0.66,0.375l0.409,0.232v-5.846
	c0.513-0.286,19.476-10.87,19.989-11.158c0.513,0.288,19.476,10.872,19.989,11.158v22.29c-0.513,0.286-19.476,10.871-19.989,11.159
	c-0.196-0.11-6.552-3.658-6.552-3.658l-0.011,1.183l6.563,3.667l21.059-11.756V12.978L92.021,1.223z"/>
<polygon fill="#FFFFFF" points="80.265,24.07 80.304,24.049 80.265,24.028 "/>
<polygon fill="#FFFFFF" points="54.74,23.87 54.74,23.899 57.68,22.258 "/>
<polygon fill="#FFFFFF" points="67.575,16.832 67.533,16.855 72.798,19.793 "/>
<path fill="#FFFFFF" d="M68.213,31.524c-0.25,0.138-0.512,0.285-0.761,0.424c-0.249-0.139-0.512-0.286-0.761-0.424v-0.851
	c0.249-0.138,0.512-0.285,0.761-0.425c0.249,0.14,0.511,0.287,0.761,0.425V31.524z M67.451,29.056l-0.267,0.149l-1.564,0.874v2.039
	l1.831,1.023l1.831-1.023v-2.039L67.451,29.056z"/>
<path fill="#FFFFFF" d="M71.016,33.024c-0.635,0.355-3.154,1.763-3.563,1.99c-0.432-0.242-3.074-1.717-3.507-1.957v-3.913
	c0.432-0.243,3.074-1.717,3.507-1.958c0.422,0.236,3.015,1.685,3.546,1.981l-0.033,6.956c-1.564,0.873-3.253,1.815-3.51,1.959
	c-0.472-0.264-5.783-3.228-6.255-3.492v-6.976c0.472-0.265,5.783-3.227,6.255-3.492c0.473,0.264,5.779,3.255,6.252,3.52
	l-0.001,0.001v7.279l2.49,1.39l1.04-0.612c-1.395-0.779-2.343-1.308-2.46-1.373v-7.321c0-0.001,0.003-0.002,0.003-0.002
	l-7.325-4.074l-0.267,0.149l-7.058,3.938v8.168l7.325,4.088l4.274-2.388l1.794,1.001l0.701-0.413l0.338-0.199
	c-1.453-0.812-2.421-1.352-2.531-1.413c0-1.674,0.003-4.895,0.003-7.294l0.003-0.002l-0.003-0.002v-0.002l-0.002,0.001l-4.581-2.57
	l-0.267,0.149l-4.309,2.405v5.104l4.577,2.556l3.578-1.977"/>
<polygon fill="#FFFFFF" points="101.057,43.227 101.057,57.168 90.436,63.096 101.057,57.271 101.094,43.208 "/>
<polygon fill="#FFFFFF" points="85.371,65.873 85.434,65.838 77.413,61.36 "/>
<path fill="#FFFFFF" d="M86.182,48.91c-0.249,0.138-0.512,0.285-0.761,0.424c-0.249-0.139-0.511-0.286-0.76-0.424V48.06
	c0.249-0.138,0.511-0.285,0.76-0.425c0.249,0.14,0.512,0.287,0.761,0.425V48.91z M85.42,46.443l-0.268,0.149l-1.563,0.874v2.04
	l1.83,1.022l1.831-1.022v-2.04L85.42,46.443z"/>
<path fill="#FFFFFF" d="M85.201,43.512l-4.313,2.406v5.109l4.581,2.557l4.582-2.557v-4.088l-1.07-0.686v4.178
	c-0.432,0.241-3.079,1.718-3.512,1.959c-0.434-0.242-3.079-1.719-3.511-1.959v-3.916c0.432-0.243,3.511-1.96,3.511-1.96v-1.193
	L85.201,43.512z"/>
<path fill="#FFFFFF" d="M85.204,40.446l-7.063,3.941v8.175l7.331,4.09l7.332-4.09v-5.127l-1.059,0.539l-0.012-0.005v3.997
	c-0.471,0.264-5.787,3.23-6.261,3.496c-0.474-0.265-5.788-3.231-6.261-3.496v-6.982c0.472-0.264,5.787-3.23,6.261-3.495
	c0.137,0.077,0.684,0.381,1.4,0.781l-0.206-1.307l-1.194-0.667L85.204,40.446z"/>
<path fill="#FFFFFF" d="M85.206,37.382l-9.813,5.477v11.239l10.08,5.625l10.081-5.625v-8.065l-1.071,0.546V53.5
	c-0.49,0.275-8.519,4.756-9.01,5.029c-0.491-0.273-8.52-4.754-9.01-5.028V43.454c0.49-0.274,8.519-4.754,9.01-5.029
	c0.085,0.047,0.405,0.225,0.869,0.485l-0.205-1.307l-0.664-0.371L85.206,37.382z"/>
<path fill="#FFFFFF" d="M77.522,32.796v-7.308L76.451,26v7.391l2.55,1.4l1.032-0.599C80.033,34.193,77.648,32.865,77.522,32.796"/>
<path fill="#FFFFFF" d="M72.649,55.632l12.828,7.162l12.831-7.162V44.629l-1.071,0.546v9.862c-0.499,0.279-11.259,6.284-11.76,6.565
	c-0.501-0.281-11.259-6.286-11.758-6.565V41.922c0.499-0.278,11.235-6.271,11.756-6.561l6.54,3.65l12.818-7.155V17.564L92.014,10.41
	l-0.267,0.149l-12.551,7.006v5.857l-6.399-3.628l-5.264-2.938l-9.854,5.403L54.74,23.9l-0.108,14.226l12.729,7.217l2.538-1.345
	v13.102l7.512,4.26l8.022,4.478l5.001-2.743l10.622-5.928l0.028-14.076l-1.1,0.68v12.798c-0.504,0.283-14.001,7.818-14.508,8.098
	c-0.507-0.28-14.001-7.815-14.507-8.098V40.393c0.482-0.27,12.911-7.2,14.524-8.101l-0.347-0.991c0,0-17.381,9.687-17.693,9.862
	c-0.491-0.275-8.511-4.769-9.001-5.043V26.083c0.49-0.276,8.51-4.752,9.001-5.026c0.491,0.274,8.513,4.75,9.002,5.026v0.057
	l1.066-0.579v-0.076l-10.068-5.621l-0.267,0.15l-9.804,5.471v11.23l10.072,5.64l2.485-1.388l-0.014,1.886
	c0,0-2.332,1.303-2.477,1.383c-0.502-0.28-11.248-6.3-11.748-6.578V24.557c0.5-0.279,11.246-6.279,11.748-6.558
	c0.501,0.279,11.249,6.279,11.748,6.559v0.094l0.001-0.001v7.205l2.572,1.44l1.044-0.614c0,0-2.408-1.345-2.547-1.421V18.16
	c0.5-0.279,11.248-6.278,11.748-6.558c0.501,0.28,11.248,6.279,11.748,6.558v13.101c-0.5,0.279-11.247,6.279-11.748,6.559
	c-0.266-0.149-3.427-1.913-6.405-3.577l-0.001-0.002l-0.141-0.079l-0.258,0.154l-12.567,7.018"/>
<path fill="#FFFFFF" d="M4.138,84.753h2.513V74.18H6.489c-1.274,0-1.848,0.139-2.746,0.676c-1.165,0.693-1.578,1.629-1.578,3.518
	v0.381v0.191H1.5v-5.164h14.338v5.148h-0.683v-0.192v-0.345c0-2.879-1.381-4.213-4.396-4.213h-0.071v10.573h2.332v0.572H4.138
	V84.753z"/>
<path fill="#FFFFFF" d="M23.124,84.753h2.243V74.214h-2.243v-0.431h15.02v4.592h-0.664c-0.053-2.616-2.027-4.161-5.311-4.161h-0.305
	h-2.549v4.975h1.239c0.968,0,1.471-0.138,1.955-0.572c0.521-0.45,0.7-0.903,0.736-1.891l0.017-0.258h0.647v6.066h-0.647
	c-0.017-1.716-1.059-2.791-2.691-2.791h-1.256v5.061h3.284c1.939,0.018,3.285-0.589,4.181-1.889
	c0.431-0.641,0.665-1.352,0.665-2.045v-0.259h0.663v4.713H23.124V84.753z"/>
<path fill="#FFFFFF" d="M54.186,79.259c2.189,0,3.265-0.815,3.265-2.463c0-1.282-0.842-2.321-2.045-2.477
	c-0.556-0.088-1.489-0.122-2.764-0.122h-0.521h-0.34v5.062H54.186z M45.896,84.753h1.992V74.352h-1.974v-0.57H56.5h0.324
	c2.118,0,3.087,0.258,3.84,1.056c0.413,0.452,0.646,1.058,0.646,1.665c0,1.299-0.808,2.201-2.315,2.564
	c-0.555,0.139-1.165,0.244-1.848,0.329c-0.143,0.018-0.395,0.053-0.718,0.086l0.611,0.053c2.566,0.173,3.499,0.953,3.536,2.946
	c0.036,1.525,0.269,2.063,0.898,2.063c0.591,0,0.717-0.294,0.717-1.803v-0.208h0.663v0.086c0,2.272-0.627,2.93-2.691,2.93
	c-1.508,0-2.172-0.138-2.638-0.571c-0.521-0.468-0.772-1.215-0.843-2.497c-0.09-1.474-0.341-2.062-1.005-2.426
	c-0.412-0.208-0.754-0.279-1.472-0.279h-2.422v4.975h2.44v0.572h-8.327V84.753z"/>
<path fill="#FFFFFF" d="M78.178,79.259c2.19,0,3.265-0.815,3.265-2.463c0-1.282-0.842-2.321-2.044-2.477
	c-0.556-0.088-1.489-0.122-2.764-0.122h-0.521h-0.34v5.062H78.178z M69.888,84.753h1.992V74.352h-1.975v-0.57h10.587h0.324
	c2.117,0,3.086,0.258,3.839,1.056c0.414,0.452,0.648,1.058,0.648,1.665c0,1.299-0.809,2.201-2.316,2.564
	c-0.557,0.139-1.165,0.244-1.848,0.329c-0.143,0.018-0.395,0.053-0.717,0.086l0.61,0.053c2.566,0.173,3.499,0.953,3.536,2.946
	c0.035,1.525,0.269,2.063,0.897,2.063c0.592,0,0.717-0.294,0.717-1.803v-0.208h0.664v0.086c0,2.272-0.627,2.93-2.691,2.93
	c-1.508,0-2.172-0.138-2.638-0.571c-0.521-0.468-0.772-1.215-0.843-2.497c-0.09-1.474-0.341-2.062-1.005-2.426
	c-0.412-0.208-0.754-0.279-1.472-0.279h-2.422v4.975h2.44v0.572h-8.327V84.753z"/>
<path fill="#FFFFFF" d="M99.372,81.2L97.183,77.3L94.976,81.2H99.372z M90.812,84.77c0.934-0.087,1.4-0.432,2.117-1.612l6.012-9.706
	h0.288l6.692,11.284h1.491v0.589h-7.843l-0.018-0.555h2.01l-1.812-3h-5.276c-0.61,0.816-0.88,1.371-0.88,1.856
	c0,0.762,0.701,1.126,2.19,1.144v0.555h-4.97V84.77z"/>
<path fill="#FFFFFF" d="M119.573,79.726l0.413,0.017c1.848,0,2.978-1.039,2.978-2.738c0-1.074-0.574-2.098-1.364-2.461
	c-0.431-0.193-1.023-0.295-1.74-0.295h-0.304h-2.1v5.477H119.573z M111.282,84.753h2.261V74.352h-2.261v-0.57h10.425h0.234
	c2.854,0,3.768,0.277,4.594,1.368c0.395,0.537,0.61,1.179,0.61,1.836c0,2.185-1.794,3.26-5.474,3.26h-4.216v4.506h2.943v0.572
	h-9.117V84.753z"/>
<polygon fill="#FFFFFF" points="134.306,84.787 136.477,84.787 136.477,74.302 134.325,74.302 134.325,73.782 142.436,73.782 
	142.436,74.302 140.336,74.302 140.317,84.787 142.417,84.787 142.417,85.325 134.306,85.325 "/>
<path fill="#FFFFFF" d="M149.828,84.753c0.109,0,0.18-0.016,0.234-0.016c1.562-0.122,2.044-0.73,2.044-2.497v-7.244l-0.969-0.643
	h-1.309v-0.57h6.55l8.021,6.517V76.4c0-1.717-0.339-2.048-2.135-2.048h-0.215h-0.216l-0.017-0.57h4.881v0.57h-0.161h-0.091
	c-1.238,0-1.542,0.366-1.562,1.804v0.277v9.083h-0.521L152.7,75.514v6.725c0,1.388,0.27,1.959,1.04,2.255
	c0.396,0.156,0.862,0.224,1.381,0.259h0.217v0.572h-5.51V84.753z"/>
<path fill="#FFFFFF" d="M47.963,95.9h-1.421v1.678h1.399c0.697,0,0.951-0.34,0.951-0.838C48.891,96.218,48.554,95.9,47.963,95.9
	 M47.947,93.906h-1.406v1.308h1.406c0.518,0,0.727-0.311,0.727-0.644C48.674,94.195,48.472,93.906,47.947,93.906 M47.881,98.273
	H45.8V93.21h2.155c0.913,0,1.504,0.463,1.504,1.317c0,0.512-0.285,0.831-0.666,1.013c0.412,0.109,0.883,0.478,0.883,1.178
	C49.677,97.744,49.027,98.273,47.881,98.273"/>
<path fill="#FFFFFF" d="M55.396,93.927h-1.527v1.627h1.527c0.525,0,0.891-0.259,0.891-0.81
	C56.287,94.216,55.928,93.927,55.396,93.927 M55.928,96.205l1.07,2.068h-0.906l-1.04-2.004h-1.183v2.004h-0.771V93.21h2.298
	c0.913,0,1.685,0.47,1.685,1.513C57.081,95.532,56.639,96.031,55.928,96.205"/>
<rect x="60.576" y="93.21" fill="#FFFFFF" width="0.786" height="5.063"/>
<path fill="#FFFFFF" d="M66.976,98.352c-1.355,0-2.216-1.077-2.216-2.609c0-1.535,0.861-2.611,2.216-2.611
	c0.854,0,1.422,0.334,1.781,0.948L68.07,94.49c-0.27-0.411-0.554-0.6-1.093-0.6c-0.913,0-1.414,0.715-1.414,1.852
	c0,1.133,0.501,1.85,1.414,1.85c0.854,0,1.19-0.543,1.19-1.134v-0.023h-0.854v-0.73h1.655v0.586
	C68.967,97.592,68.143,98.352,66.976,98.352"/>
<polygon fill="#FFFFFF" points="75.524,98.273 75.524,96.002 73.114,96.002 73.114,98.273 72.328,98.273 72.328,93.21 73.114,93.21 
	73.114,95.258 75.524,95.258 75.524,93.21 76.31,93.21 76.31,98.273 "/>
<polygon fill="#FFFFFF" points="81.902,93.955 81.902,98.273 81.116,98.273 81.116,93.955 79.589,93.955 79.589,93.21 83.429,93.21 
	83.429,93.955 "/>
<path fill="#FFFFFF" d="M91.923,98.352c-1.355,0-2.216-1.077-2.216-2.609c0-1.535,0.861-2.611,2.216-2.611
	c0.853,0,1.422,0.334,1.782,0.948l-0.689,0.411c-0.271-0.411-0.553-0.6-1.093-0.6c-0.913,0-1.415,0.715-1.415,1.852
	c0,1.133,0.502,1.85,1.415,1.85c0.853,0,1.19-0.543,1.19-1.134v-0.023H92.26v-0.73h1.654v0.586
	C93.914,97.592,93.09,98.352,91.923,98.352"/>
<path fill="#FFFFFF" d="M99.573,93.927h-1.527v1.627h1.527c0.525,0,0.891-0.259,0.891-0.81
	C100.464,94.216,100.105,93.927,99.573,93.927 M100.105,96.205l1.071,2.068h-0.906l-1.041-2.004h-1.183v2.004h-0.771V93.21h2.298
	c0.913,0,1.686,0.47,1.686,1.513C101.259,95.532,100.817,96.031,100.105,96.205"/>
<polygon fill="#FFFFFF" points="104.716,98.273 104.716,93.21 108.091,93.21 108.091,93.948 105.503,93.948 105.503,95.2 
	107.006,95.2 107.006,95.936 105.503,95.936 105.503,97.534 108.204,97.534 108.204,98.273 "/>
<polygon fill="#FFFFFF" points="111.566,98.273 111.566,93.21 114.941,93.21 114.941,93.948 112.352,93.948 112.352,95.2 
	113.856,95.2 113.856,95.936 112.352,95.936 112.352,97.534 115.053,97.534 115.053,98.273 "/>
<path fill="#FFFFFF" d="M121.648,98.273l-2.089-3.174c-0.128-0.189-0.307-0.493-0.388-0.623c0,0.188,0.007,0.891,0.007,1.172v2.625
	h-0.763V93.21h0.8l1.992,3.089c0.133,0.209,0.359,0.585,0.435,0.716c0-0.189-0.008-0.912-0.008-1.194V93.21h0.763v5.063H121.648z"/>
</svg>
