<?xml version="1.0" encoding="utf-8"?>
<!-- Generator: Adobe Illustrator 17.1.0, SVG Export Plug-In . SVG Version: 6.00 Build 0)  -->
<!DOCTYPE svg PUBLIC "-//W3C//DTD SVG 1.1//EN" "http://www.w3.org/Graphics/SVG/1.1/DTD/svg11.dtd">
<svg version="1.1" id="Layer_1" xmlns="http://www.w3.org/2000/svg" xmlns:xlink="http://www.w3.org/1999/xlink" x="0px" y="0px"
	 viewBox="0 0 173.2 200" enable-background="new 0 0 173.2 200" xml:space="preserve">
<path fill="#FFFFFF" d="M112.6,74.3c-0.7,0.4-1.5,0.9-2.2,1.3c-0.7-0.4-1.5-0.9-2.2-1.3v-2.6c0.7-0.4,1.5-0.9,2.2-1.3
	c0.7,0.4,1.5,0.9,2.2,1.3V74.3z M110.4,66.8l-0.8,0.5l-4.6,2.7v6.2l5.4,3.1l5.4-3.1v-6.2L110.4,66.8z"/>
<path fill="#FFFFFF" d="M120.7,79c-1.3,0.7-9,5.2-10.3,6c-1.3-0.7-9-5.2-10.3-6V67.1c1.3-0.7,9-5.2,10.3-6c1.3,0.7,9,5.2,10.3,6V79z
	 M109.6,57.9L97,65.3v15.5l13.4,7.8l13.4-7.8V65.3l-13.4-7.8L109.6,57.9z"/>
<path fill="#FFFFFF" d="M128.7,83.7c-1.4,0.8-16.9,9.8-18.3,10.6c-1.4-0.8-16.9-9.8-18.3-10.6V62.4c1.4-0.8,16.9-9.8,18.3-10.6
	c1.4,0.8,16.9,9.8,18.3,10.6V83.7z M131.8,60.6l-21.4-12.5l-0.8,0.5L89,60.6v24.9L110.4,98l21.4-12.5V60.6z"/>
<path fill="#FFFFFF" d="M91.2,92.5c-3.5-2-6.7-3.9-7.1-4.1V57.8c1.4-0.8,24.9-14.5,26.3-15.3c1.4,0.8,24.9,14.5,26.3,15.3v30.6
	c-1.4,0.8-24.9,14.5-26.3,15.3c-1-0.6-11.9-6.9-19.4-11.3V96l19.4,11.3l29.5-17.1V56l-29.5-17.1l-0.8,0.5L81,56v34.2l10.4,6"/>
<path fill="#FFFFFF" d="M68,48.5c1.5-0.9,40.9-23.8,42.4-24.7c1.5,0.9,40.9,23.8,42.4,24.7v49.3c-1.5,0.9-40.9,23.8-42.4,24.7
	c-0.7-0.4-9.8-5.7-19.1-11.1v3.6l19.1,11.1l45.5-26.5V46.6l-45.5-26.5l-0.8,0.5l-44.7,26v18l3.1,1.9V48.5z"/>
<path fill="#FFFFFF" d="M60,43.8c1.5-0.9,48.9-28.5,50.4-29.3c1.5,0.9,48.9,28.5,50.4,29.3v58.6c-1.5,0.9-48.9,28.5-50.4,29.3
	c-0.6-0.4-19.2-11.1-19.2-11.1l0,3.6l19.2,11.1l53.6-31.2V42l-53.6-31.1l-0.8,0.5L56.9,42v17.9l3.1,1.9V43.8z"/>
<path fill="#FFFFFF" d="M110.4,1.5L109.7,2L48.9,37.3v17.8l1.9,1.1l1.2,0.7V39.1c1.5-0.9,57-33.1,58.5-34c1.5,0.9,57,33.1,58.5,34
	v67.9c-1.5,0.9-57,33.1-58.5,34c-0.6-0.3-19.2-11.1-19.2-11.1l0,3.6l19.2,11.2l61.6-35.8V37.3L110.4,1.5z"/>
<polygon fill="#FFFFFF" points="76.1,71.1 76.2,71.1 76.1,71 "/>
<polygon fill="#FFFFFF" points="1.4,70.5 1.4,70.6 10,65.6 "/>
<polygon fill="#FFFFFF" points="38.9,49.1 38.8,49.1 54.2,58.1 "/>
<path fill="#FFFFFF" d="M40.8,93.8c-0.7,0.4-1.5,0.9-2.2,1.3c-0.7-0.4-1.5-0.9-2.2-1.3v-2.6c0.7-0.4,1.5-0.9,2.2-1.3
	c0.7,0.4,1.5,0.9,2.2,1.3V93.8z M38.6,86.3l-0.8,0.5l-4.6,2.7v6.2l5.4,3.1l5.4-3.1v-6.2L38.6,86.3z"/>
<path fill="#FFFFFF" d="M49,98.4c-1.9,1.1-9.2,5.4-10.4,6.1c-1.3-0.7-9-5.2-10.3-6V86.6c1.3-0.7,9-5.2,10.3-6
	c1.2,0.7,8.8,5.1,10.4,6l-0.1,21.2c-4.6,2.7-9.5,5.5-10.3,6c-1.4-0.8-16.9-9.8-18.3-10.6V81.9c1.4-0.8,16.9-9.8,18.3-10.6
	C40,72.1,55.5,81.2,56.9,82l0,0v22.2l7.3,4.2l3-1.9c-4.1-2.4-6.9-4-7.2-4.2V80.1c0,0,0,0,0,0L38.6,67.6l-0.8,0.5l-20.6,12V105
	l21.4,12.5l12.5-7.3l5.2,3.1l2.1-1.3l1-0.6c-4.2-2.5-7.1-4.1-7.4-4.3c0-5.1,0-14.9,0-22.2l0,0l0,0v0l0,0L38.6,77l-0.8,0.5l-12.6,7.3
	v15.6l13.4,7.8l10.5-6"/>
<polygon fill="#FFFFFF" points="136.9,129.5 136.9,172 105.8,190 136.9,172.3 137,129.4 "/>
<polygon fill="#FFFFFF" points="91,198.5 91.2,198.4 67.7,184.7 "/>
<path fill="#FFFFFF" d="M93.4,146.8c-0.7,0.4-1.5,0.9-2.2,1.3c-0.7-0.4-1.5-0.9-2.2-1.3v-2.6c0.7-0.4,1.5-0.9,2.2-1.3
	c0.7,0.4,1.5,0.9,2.2,1.3V146.8z M91.1,139.3l-0.8,0.5l-4.6,2.7v6.2l5.4,3.1l5.4-3.1v-6.2L91.1,139.3z"/>
<path fill="#FFFFFF" d="M90.5,130.4l-12.6,7.3v15.6l13.4,7.8l13.4-7.8v-12.5l-3.1-2.1v12.7c-1.3,0.7-9,5.2-10.3,6
	c-1.3-0.7-9-5.2-10.3-6v-11.9c1.3-0.7,10.3-6,10.3-6v-3.6L90.5,130.4z"/>
<path fill="#FFFFFF" d="M90.5,121l-20.7,12v24.9l21.4,12.5l21.4-12.5v-15.6l-3.1,1.6l0,0v12.2c-1.4,0.8-16.9,9.8-18.3,10.7
	c-1.4-0.8-16.9-9.8-18.3-10.7v-21.3c1.4-0.8,16.9-9.8,18.3-10.6c0.4,0.2,2,1.2,4.1,2.4l-0.6-4l-3.5-2L90.5,121z"/>
<path fill="#FFFFFF" d="M90.5,111.7l-28.7,16.7v34.2l29.5,17.1l29.5-17.1V138l-3.1,1.7v21.1c-1.4,0.8-24.9,14.5-26.4,15.3
	c-1.4-0.8-24.9-14.5-26.3-15.3v-30.6c1.4-0.8,24.9-14.5,26.3-15.3c0.2,0.1,1.2,0.7,2.5,1.5l-0.6-4l-1.9-1.1L90.5,111.7z"/>
<path fill="#FFFFFF" d="M68,97.7V75.4L64.9,77v22.5l7.5,4.3l3-1.8C75.4,102,68.4,97.9,68,97.7"/>
<path fill="#FFFFFF" d="M53.8,167.3l37.5,21.8l37.5-21.8v-33.5l-3.1,1.7v30.1c-1.5,0.8-32.9,19.1-34.4,20
	c-1.5-0.9-32.9-19.2-34.4-20v-40c1.5-0.8,32.9-19.1,34.4-20l19.1,11.1l37.5-21.8V51.3l-37.5-21.8l-0.8,0.5L72.9,51.3v17.8L54.2,58.1
	l-15.4-9L10,65.6l-8.6,5L1.1,114l37.2,22l7.4-4.1l0,39.9l22,13l23.5,13.6l14.6-8.4l31.1-18.1l0.1-42.9l-3.2,2.1v39
	c-1.5,0.9-40.9,23.8-42.4,24.7c-1.5-0.9-40.9-23.8-42.4-24.7v-49.3c1.4-0.8,37.8-21.9,42.5-24.7l-1-3c0,0-50.8,29.5-51.7,30
	c-1.4-0.8-24.9-14.5-26.3-15.4V77.2c1.4-0.8,24.9-14.5,26.3-15.3c1.4,0.8,24.9,14.5,26.3,15.3v0.2l3.1-1.8v-0.2L38.6,58.3l-0.8,0.5
	L9.1,75.4v34.2l29.5,17.2l7.3-4.2l0,5.7c0,0-6.8,4-7.2,4.2c-1.5-0.9-32.9-19.2-34.4-20V72.6c1.5-0.8,32.9-19.1,34.4-20
	c1.5,0.8,32.9,19.1,34.4,20v0.3l0,0v22l7.5,4.4l3.1-1.9c0,0-7-4.1-7.4-4.3V53.1c1.5-0.8,32.9-19.1,34.4-20
	c1.5,0.9,32.9,19.1,34.4,20V93c-1.5,0.8-32.9,19.1-34.4,20c-0.8-0.5-10-5.8-18.7-10.9v0l-0.4-0.2l-0.8,0.5l-36.7,21.4"/>
</svg>
